PathFileType	4	(X/Y/Z)	10_2_59_p1_0-281_filt_butterworth.trc
DataRate	CameraRate	NumFrames	NumMarkers	Units	OrigDataRate	OrigDataStartFrame	OrigNumFrames
59.0	59.0	4	27	m	59.0	0	281
Frame#	Time	RHip			RKnee			RAnkle			RBigToe			RSmallToe			RHeel			LHip			LKnee			LAnkle			LBigToe			LSmallToe			LHeel			Neck			Head			Nose			RShoulder			RElbow			RWrist			RThumb			RIndex			RPinky			LShoulder			LElbow			LWrist			LThumb			LIndex			LPinky			
		X1	Y1	Z1	X2	Y2	Z2	X3	Y3	Z3	X4	Y4	Z4	X5	Y5	Z5	X6	Y6	Z6	X7	Y7	Z7	X8	Y8	Z8	X9	Y9	Z9	X10	Y10	Z10	X11	Y11	Z11	X12	Y12	Z12	X13	Y13	Z13	X14	Y14	Z14	X15	Y15	Z15	X16	Y16	Z16	X17	Y17	Z17	X18	Y18	Z18	X19	Y19	Z19	X20	Y20	Z20	X21	Y21	Z21	X22	Y22	Z22	X23	Y23	Z23	X24	Y24	Z24	X25	Y25	Z25	X26	Y26	Z26	X27	Y27	Z27	
0	0.0	0.32494003768566426	0.7211625251157925	0.7306116385678127	0.32434117009821584	0.3139278191813003	0.7514582074684165	0.32274686610362513	-0.0824763444142744	0.7799727378536768	0.28018524106837267	-0.14970343872804037	0.6056362558407992	0.3566511303734693	-0.14492859536560868	0.6435768466260356	0.28577264038902433	-0.16826397898452639	0.8585744984373395	0.11060085271772721	0.695384827117711	0.7431254381467572	0.0967506395482463	0.31671159884558364	0.7428338437198153	0.09441492543347182	-0.07082297805244099	0.7602565666703818	0.10223628527010041	-0.21381243001482722	0.668328549182972	0.05371926350722434	-0.1435965234636006	0.633064650846864	0.11150933425262619	-0.1532431051034361	0.8395326119131806	0.22366459353196563	1.2866753363237717	0.7218645197928384	0.2289622031142254	1.538221432209166	0.7015802343601851	0.23192451560149482	1.4264997637289598	0.6353293079462117	0.3853070332362694	1.1722874407055246	0.7552842572891749	0.40145657447151023	0.8857763597270005	0.7258138076899338	0.302347234913766	0.730577653772143	0.5550993518446466	0.1983913398927888	0.663101057484948	0.5349321067478325	0.194451651417162	0.6520641143527517	0.542140930825203	0.22848739276464622	0.5951826007953986	0.5993650727171849	0.0615312705904363	1.1874400180273397	0.718452819425395	0.050772539532786376	0.8982669307805435	0.6866475397863984	0.1905473900224321	0.7480516338822744	0.5577194190439462	0.2612277618420299	0.6890876857161066	0.525742923315097	0.2524268232220184	0.6349250749939594	0.5598587138050203	0.23649688802555668	0.6196728205267313	0.6144676297710978	
1	0.0169491525423728	0.3235753496602321	0.7225131781608105	0.730571267176028	0.3240688235322774	0.31586240634676543	0.7510705473790382	0.3228586701947787	-0.08297611550098125	0.7803765894693515	0.28024726216232804	-0.15028301559579532	0.6058796530932484	0.35499081685401884	-0.15083178078404735	0.6540330257661161	0.2859842473868854	-0.16933272603724814	0.859118020450395	0.11032752766048738	0.6973673854875599	0.741069145330657	0.09678669663086689	0.31665673839752884	0.7425183631949823	0.09568152446163335	-0.0688854014944382	0.7576604827386592	0.10451676902411709	-0.20477300340967153	0.6600927054388948	0.05653689177686086	-0.13807751860829662	0.6267070235596466	0.11153080207075794	-0.1509156036497146	0.8382492023965978	0.22383983912459773	1.288581257639986	0.7214450179363128	0.22865411772059394	1.537462817908215	0.7012330352956152	0.23193417482730055	1.4264839686993174	0.6353126634505413	0.3851190077070513	1.1743035411054348	0.7546470499506361	0.40162070678482276	0.8899996926788202	0.7251441119398939	0.30241826933584864	0.7338776106224573	0.5555781693813655	0.19842843007326771	0.6629392896202881	0.5349493093703958	0.1948720425236811	0.6485459287423767	0.5424740583392007	0.2281041024650854	0.5960465335906449	0.6007741328994481	0.0616844459717039	1.1855623148367969	0.7178286765327558	0.05042235280672073	0.8988229739992272	0.6848456088689483	0.18927319910370832	0.7466360976197701	0.5615052778494427	0.26162639730874837	0.6911682249825212	0.5220167385161643	0.25195985275596944	0.6365000514323046	0.5578104899922699	0.23423735761694162	0.6228754104308645	0.6086873793322474	
2	0.0338983050847457	0.32246345080573824	0.7237208568405668	0.7304176975543614	0.3238736307318389	0.3172755652797878	0.7507873474538628	0.32297944412948804	-0.08357494101736312	0.780739427064453	0.2802711197262612	-0.15060264015111502	0.6060071522325764	0.3537013507420342	-0.15415864171621108	0.6600127543634311	0.2861709710996661	-0.1704130046836505	0.8595917393201772	0.11017754885209965	0.6990436038310741	0.7394667663513805	0.09683015545942303	0.3167481165528474	0.7422282411383235	0.0967253048159022	-0.06742782428661588	0.7555177425106561	0.10573826239824272	-0.1979580760958154	0.6532709883602381	0.05822475898598644	-0.1348759533063291	0.6227636156225922	0.11154289547929641	-0.1492502920726045	0.837416996673875	0.22353650989808618	1.2898032316513734	0.720986150558482	0.22859019344232104	1.5369080056869067	0.7013192219201769	0.2319347314536392	1.426481656907956	0.635303852687359	0.38500746057513413	1.1755671355579234	0.7542285195792453	0.4017567518576034	0.8936200492252282	0.7245897365610918	0.30286324047304053	0.7366554720874179	0.556027486385318	0.1983541831115927	0.662900897254968	0.5350120022763128	0.19505607575440168	0.6467805915142714	0.5427864105047792	0.22766814689388676	0.5971325836864043	0.601262639072804	0.061784515483267355	1.1843748346780507	0.7174698564713831	0.05028762521133505	0.8990059402786519	0.6843680004237837	0.18781488011894337	0.7455622292626425	0.5642365423471285	0.26146635813786984	0.6918989684369605	0.5221248107630714	0.25145259389121927	0.6375943860028509	0.5591160912965739	0.23318498032728	0.6250196976228009	0.6054571944246601	
3	0.0508474576271186	0.3215807463937076	0.7247866472079205	0.7301745369750995	0.3237486757982888	0.3182138424820171	0.7505993653754962	0.32310711126058944	-0.08425606357281566	0.7810628871157715	0.28026599523183776	-0.15071295110372837	0.6060410090834933	0.3527501953089498	-0.15549583163123798	0.6624474003799509	0.28633393205634083	-0.17149462602763668	0.8599998486891579	0.11013796678076583	0.7004287273922096	0.7382856886437482	0.09687993955444038	0.31696445428403136	0.7419639258936843	0.09756419810883793	-0.06640860673572775	0.7537928842960532	0.10613541379363454	-0.19309561640523	0.647816857044151	0.059003505210020735	-0.13354965581158423	0.6207616186811471	0.11154767272954805	-0.14818355961210575	0.8369826744545084	0.22288723010642164	1.2904721303475473	0.7205157006230987	0.22869633404103268	1.5365229181009759	0.7017070243267491	0.23192784993212998	1.426489968087221	0.6353004925870107	0.38495642086670095	1.176224590462964	0.7539896525138607	0.4018656714930636	0.8966394652946416	0.7241448282679737	0.30356007116962913	0.7389282688905993	0.5564401773334147	0.19824609771642512	0.6629599293721432	0.5351009104068851	0.1950538169630778	0.6464242519523363	0.5430798213092692	0.2271487259696035	0.598311501601306	0.6011626594464369	0.061841629247958295	1.1837456258898087	0.7173222053796713	0.05033201863544697	0.8988838747136189	0.6849768461796967	0.18623241292700424	0.7447632580954551	0.5661857178426293	0.2608947484567957	0.6915553883541147	0.5251288694665063	0.25095374135570303	0.6382914094499372	0.5629481921391406	0.23304391822654882	0.6262122139203864	0.6043695215499982	
